<svg width="20" height="314" viewBox="0 0 20 314" fill="none" xmlns="http://www.w3.org/2000/svg">
<g opacity="0.4">
<path d="M19.7393 292.655L19.7393 296.966L5.64936 302.738L5.64936 302.966L19.7393 308.739L19.7393 313.05L0.294444 313.05L0.294444 309.669L13.6533 309.669L13.6533 309.489L0.351411 304.115L0.351411 301.59L13.6817 296.216L13.6817 296.035L0.294445 296.035L0.294445 292.655L19.7393 292.655Z" fill="white"/>
<path d="M0.294445 273.131L0.294445 269.371L19.7393 276.217L19.7393 280.565L0.294444 287.42L0.294444 283.66L15.7516 278.467L15.7516 278.315L0.294445 273.131ZM7.91856 273.254L7.91856 283.508L5.08919 283.508L5.08919 273.254L7.91856 273.254Z" fill="white"/>
<path d="M0.294445 251.72L19.7393 251.72L19.7393 264.366L16.7865 264.366L16.7865 255.242L11.5075 255.242L11.5075 263.711L8.55469 263.711L8.55469 255.242L3.24725 255.242L3.24725 264.442L0.294444 264.442L0.294445 251.72Z" fill="white"/>
<path d="M16.7865 230.541L19.7393 230.541L19.7393 246.055L16.7865 246.055L16.7865 240.045L0.294445 240.045L0.294445 236.551L16.7865 236.551L16.7865 230.541Z" fill="white"/>
<path d="M0.294445 202.21L19.7393 202.21L19.7393 209.502C19.7393 210.996 19.4608 212.249 18.9037 213.262C18.3467 214.281 17.5808 215.05 16.6061 215.569C15.6376 216.094 14.5363 216.357 13.302 216.357C12.055 216.357 10.9473 216.094 9.97887 215.569C9.01043 215.043 8.2477 214.268 7.69069 213.243C7.14 212.217 6.86466 210.954 6.86466 209.454L6.86466 204.622L9.7605 204.622L9.7605 208.98C9.7605 209.853 9.91241 210.568 10.2162 211.125C10.5201 211.682 10.9378 212.094 11.4695 212.36C12.0012 212.632 12.612 212.768 13.302 212.768C13.9919 212.768 14.5995 212.632 15.1249 212.36C15.6503 212.094 16.0585 211.679 16.3497 211.116C16.6472 210.559 16.796 209.84 16.796 208.961L16.796 205.732L0.294445 205.732L0.294445 202.21Z" fill="white"/>
<path d="M10.0169 196.207C7.92174 196.207 6.12728 195.814 4.63347 195.029C3.14599 194.251 2.00665 193.187 1.21544 191.839C0.424224 190.497 0.0286193 188.975 0.0286194 187.272C0.0286195 185.57 0.424225 184.044 1.21544 182.696C2.01298 181.354 3.15549 180.291 4.64297 179.506C6.13677 178.727 7.92807 178.338 10.0169 178.338C12.112 178.338 13.9033 178.727 15.3908 179.506C16.8846 180.291 18.0271 181.354 18.8183 182.696C19.6095 184.044 20.0051 185.57 20.0051 187.272C20.0051 188.975 19.6095 190.497 18.8183 191.839C18.0271 193.187 16.8846 194.251 15.3908 195.029C13.9033 195.814 12.112 196.207 10.0169 196.207ZM10.0169 192.665C11.4917 192.665 12.7355 192.434 13.7482 191.972C14.7673 191.516 15.5364 190.883 16.0554 190.073C16.5808 189.263 16.8434 188.329 16.8434 187.272C16.8434 186.215 16.5808 185.282 16.0554 184.471C15.5364 183.661 14.7673 183.025 13.7482 182.563C12.7355 182.107 11.4917 181.879 10.0169 181.879C8.54205 181.879 7.29511 182.107 6.27603 182.563C5.26327 183.025 4.49422 183.661 3.96885 184.471C3.44982 185.282 3.1903 186.215 3.1903 187.272C3.1903 188.329 3.44982 189.263 3.96885 190.073C4.49422 190.883 5.26327 191.516 6.27603 191.972C7.29511 192.434 8.54205 192.665 10.0169 192.665Z" fill="white"/>
<path d="M16.7865 158.515L19.7393 158.515L19.7393 174.029L16.7865 174.029L16.7865 168.019L0.294445 168.019L0.294445 164.525L16.7865 164.525L16.7865 158.515Z" fill="white"/>
<path d="M0.294445 130L19.7393 130L19.7393 137.292C19.7393 138.786 19.4797 140.039 18.9607 141.052C18.4417 142.071 17.7138 142.84 16.777 143.359C15.8465 143.884 14.761 144.147 13.5203 144.147C12.2734 144.147 11.191 143.881 10.2732 143.349C9.36173 142.824 8.65597 142.049 8.15592 141.023C7.66221 139.998 7.41535 138.738 7.41535 137.244L7.41535 132.051L10.3397 132.051L10.3397 136.77C10.3397 137.643 10.4599 138.358 10.7005 138.915C10.9473 139.472 11.3049 139.884 11.7733 140.15C12.2481 140.422 12.8304 140.558 13.5203 140.558C14.2103 140.558 14.7989 140.422 15.2863 140.15C15.78 139.877 16.1535 139.463 16.4067 138.906C16.6662 138.349 16.796 137.63 16.796 136.751L16.796 133.522L0.294445 133.522L0.294445 130ZM9.10537 140.045L0.294444 144.859L0.294445 140.928L9.10538 136.2L9.10537 140.045Z" fill="white"/>
<path d="M0.294445 111.086L19.7393 111.086L19.7393 123.733L16.7865 123.733L16.7865 114.608L11.5075 114.608L11.5075 123.078L8.55469 123.078L8.55469 114.608L3.24725 114.608L3.24725 123.809L0.294444 123.809L0.294445 111.086Z" fill="white"/>
<path d="M0.294445 95.6283L0.294445 89.0391L19.7393 89.0391L19.7393 95.7612C19.7393 97.6918 19.35 99.3501 18.5714 100.736C17.7992 102.129 16.6883 103.199 15.2388 103.945C13.7893 104.692 12.055 105.066 10.0358 105.066C8.01034 105.066 6.26967 104.689 4.81384 103.936C3.35801 103.189 2.24083 102.11 1.46227 100.698C0.683721 99.2932 0.294445 97.6031 0.294445 95.6283ZM3.34219 92.5615L3.34219 95.4574C3.34219 96.8119 3.58905 97.9418 4.08276 98.8469C4.58281 99.7521 5.32655 100.433 6.31398 100.888C7.30774 101.344 8.54836 101.572 10.0358 101.572C11.5233 101.572 12.7576 101.344 13.7387 100.888C14.7261 100.433 15.4635 99.7584 15.9509 98.8659C16.4447 97.9798 16.6915 96.8784 16.6915 95.5618L16.6915 92.5615L3.34219 92.5615Z" fill="white"/>
<path d="M19.7393 82.5272L0.294444 82.5272L0.294444 79.394L13.5393 70.2317L13.5393 70.0703L0.294445 70.0703L0.294445 66.5479L19.7393 66.5479L19.7393 69.7L6.48488 78.8528L6.48488 79.0237L19.7393 79.0237L19.7393 82.5272Z" fill="white"/>
<path d="M19.7393 56.5231L19.7393 60.0455L7.03557 60.0455C5.64303 60.0455 4.41824 59.7164 3.36118 59.0581C2.30412 58.4062 1.4781 57.4883 0.883106 56.3047C0.294445 55.121 0.000114027 53.738 0.000114096 52.1556C0.000114165 50.5668 0.294445 49.1806 0.883106 47.997C1.4781 46.8133 2.30412 45.8955 3.36118 45.2436C4.41824 44.5916 5.64303 44.2656 7.03557 44.2656L19.7393 44.2656L19.7393 47.7881L7.3299 47.7881C6.5197 47.7881 5.79811 47.9653 5.16514 48.3198C4.53217 48.6806 4.03529 49.187 3.6745 49.8389C3.32004 50.4909 3.1428 51.2631 3.1428 52.1556C3.1428 53.0481 3.32004 53.8203 3.6745 54.4723C4.03529 55.1305 4.53217 55.6369 5.16514 55.9914C5.79811 56.3458 6.5197 56.5231 7.3299 56.5231L19.7393 56.5231Z" fill="white"/>
<path d="M0.294445 21.6963L19.7393 21.6963L19.7393 25.2188L11.5075 25.2188L11.5075 34.2291L19.7393 34.2291L19.7393 37.761L0.294444 37.761L0.294444 34.2291L8.55469 34.2291L8.55469 25.2188L0.294445 25.2188L0.294445 21.6963Z" fill="white"/>
<path d="M16.7865 0.517578L19.7393 0.517578L19.7393 16.0317L16.7865 16.0317L16.7865 10.0216L0.294445 10.0216L0.294445 6.52762L16.7865 6.52762L16.7865 0.517578Z" fill="white"/>
</g>
</svg>
