<svg width="226" height="592" viewBox="0 0 226 592" fill="none" xmlns="http://www.w3.org/2000/svg">
<path opacity="0.8" d="M185.268 407.329L184.268 407.329L184.268 408.329L184.268 475.051L2.62471 475.051L1.62471 475.051L1.62471 476.051L1.62471 522.278L1.62471 523.278L2.62471 523.278L184.268 523.278L184.268 590L184.268 591L185.268 591L223.827 591L224.827 591L224.827 590L224.827 408.329L224.827 407.329L223.827 407.329L185.268 407.329Z" stroke="#30321C" stroke-width="2"/>
<path opacity="0.4" d="M185.268 204.165L184.268 204.165L184.268 205.165L184.268 271.887L2.62471 271.887L1.62471 271.887L1.62471 272.887L1.62471 319.114L1.62471 320.114L2.62471 320.114L184.268 320.114L184.268 386.836L184.268 387.836L185.268 387.836L223.827 387.836L224.827 387.836L224.827 386.836L224.827 205.165L224.827 204.165L223.827 204.165L185.268 204.165Z" stroke="#30321C" stroke-width="2"/>
<path d="M185.268 0.999998L184.268 0.999998L184.268 2L184.268 68.7215L2.62471 68.7215L1.62471 68.7215L1.62471 69.7215L1.62471 115.949L1.62471 116.949L2.62471 116.949L184.268 116.949L184.268 183.671L184.268 184.671L185.268 184.671L223.827 184.671L224.827 184.671L224.827 183.671L224.827 2L224.827 1L223.827 1L185.268 0.999998Z" stroke="#30321C" stroke-width="2"/>
</svg>
